<svg xmlns="http://www.w3.org/2000/svg" xmlns:xlink="http://www.w3.org/1999/xlink" id="Layer_1" x="0px" y="0px" viewBox="0 0 938.26 190.55" style="enable-background:new 0 0 938.26 190.55;" xml:space="preserve"><style type="text/css">	.st0{fill:#000B2F;}	.st1{fill:#FFC94E;}	.st2{fill:#FAA334;}	.st3{fill:#FFFFFF;}	.st4{fill:#FAA82C;}</style><rect x="-1670.59" y="-692.32" class="st0" width="1037.62" height="661.96"></rect><rect x="-2992.46" y="-690.05" class="st0" width="1037.62" height="661.96"></rect><g>	<g>		<path class="st1" d="M-2473.79-370.54c0-0.31,0.01-0.63,0.03-0.94h-0.03v-24.97c-0.03,0-0.07,0-0.1,0   c-6.73,0-12.19-5.03-12.19-11.23c0-6.2,5.46-11.23,12.19-11.23c0.03,0,0.07,0,0.1,0v-22.04h-38.05h-5.18h-43.19   c-0.21,1.18-0.32,2.39-0.32,3.62c0,10.67,8.02,19.6,18.81,21.97c-4.7,4.12-7.63,9.93-7.63,16.37c0,12.48,10.97,22.59,24.5,22.59   c1.09,0,2.17-0.07,3.23-0.2c-0.58,1.93-0.9,3.96-0.9,6.06c0,12.48,10.97,22.59,24.5,22.59c9.66,0,18.01-5.15,22-12.64h0v0   c1.27-2.38,2.08-5.01,2.37-7.78C-2473.73-369.09-2473.79-369.81-2473.79-370.54z"></path>		<path class="st1" d="M-2405.77-466.53c4.74-4.12,7.7-9.93,7.7-16.37c0-12.48-11.08-22.59-24.74-22.59c-1.11,0-2.19,0.07-3.26,0.2   c0.59-1.93,0.91-3.96,0.91-6.06c0-12.48-11.08-22.59-24.74-22.59c-9.75,0-18.18,5.15-22.22,12.64h0v0c-1.62,3-2.53,6.38-2.53,9.95   c0,0.31,0.01,0.63,0.03,0.94h-0.03v25.36c6.72,0.08,12.15,5.06,12.15,11.22s-5.43,11.14-12.15,11.22v21.66h25.3   c0,6.2,5.51,11.23,12.31,11.23s12.31-5.03,12.31-11.23h37.64c0.21-1.18,0.32-2.39,0.32-3.62   C-2386.78-455.22-2394.88-464.16-2405.77-466.53z"></path>		<path class="st2" d="M-2474.65-485.06v-25.35h-0.03c0.01-0.31,0.03-0.62,0.03-0.94c0-3.57-0.89-6.95-2.47-9.95v0h0   c-3.94-7.48-12.18-12.64-21.71-12.64c-13.35,0-24.18,10.11-24.18,22.59c0,2.1,0.31,4.13,0.89,6.06c-1.04-0.13-2.1-0.2-3.18-0.2   c-13.35,0-24.18,10.11-24.18,22.59c0,6.44,2.89,12.25,7.53,16.37c-10.64,2.37-18.56,11.3-18.56,21.97c0,1.23,0.11,2.44,0.31,3.62   h42.62h5.11h37.82v-21.65c6.64,0,12.03-5.03,12.03-11.23C-2462.63-480.03-2468.01-485.06-2474.65-485.06z"></path>		<g>			<path class="st2" d="M-2387.1-440.94h-37.27c0,6.2-5.46,11.23-12.18,11.23c-6.73,0-12.19-5.03-12.19-11.23h-25.05v22.04    c-0.03,0-0.07,0-0.1,0c-6.73,0-12.19,5.03-12.19,11.23s5.46,11.23,12.19,11.23c0.03,0,0.07,0,0.1,0v24.97h0.03    c-0.01,0.31-0.03,0.62-0.03,0.94c0,3.57,0.9,6.95,2.5,9.95v0h0c3.99,7.48,12.34,12.64,22,12.64c13.53,0,24.5-10.11,24.5-22.59    c0-2.1-0.32-4.13-0.9-6.06c1.06,0.13,2.13,0.2,3.23,0.2c13.53,0,24.5-10.11,24.5-22.59c0-6.44-2.93-12.25-7.63-16.37    c10.78-2.37,18.81-11.3,18.81-21.97C-2386.78-438.56-2386.89-439.76-2387.1-440.94L-2387.1-440.94z"></path>			<path class="st0" d="M-2384.5-444.56c0-10.33-6.8-19.37-16.96-23.09c3.68-4.34,5.67-9.63,5.67-15.25    c0-13.72-12.12-24.87-27.03-24.87c-0.12,0-0.23,0-0.35,0c0.19-1.18,0.28-2.38,0.28-3.57c0-13.72-12.13-24.88-27.03-24.88    c-10.35,0-19.63,5.3-24.22,13.84c-0.18,0.33-0.34,0.66-0.49,0.99c-0.15-0.32-0.31-0.65-0.47-0.97    c-4.5-8.55-13.59-13.86-23.73-13.86c-14.59,0-26.47,11.16-26.47,24.87c0,1.2,0.09,2.39,0.27,3.57c-0.1,0-0.19,0-0.29,0    c-14.59,0-26.47,11.16-26.47,24.87c0,5.62,1.95,10.92,5.56,15.25c-9.94,3.72-16.59,12.76-16.59,23.08c0,1.2,0.11,2.42,0.3,3.63    c-0.19,1.2-0.3,2.41-0.3,3.6c0,10.33,6.74,19.36,16.8,23.09c-3.65,4.34-5.62,9.63-5.62,15.25c0,13.72,12.02,24.87,26.79,24.87    c0.11,0,0.21,0,0.32,0c-0.19,1.18-0.28,2.38-0.28,3.57c0,13.72,12.02,24.87,26.79,24.87c10.26,0,19.46-5.31,24.01-13.85    c0.13-0.24,0.22-0.48,0.34-0.72c0.12,0.24,0.23,0.48,0.36,0.72c4.56,8.54,13.76,13.85,24.01,13.85    c14.77,0,26.79-11.16,26.79-24.87c0-1.2-0.09-2.39-0.28-3.57c15,0.23,27.11-11.06,27.11-24.87c0-5.62-1.97-10.92-5.62-15.25    c10.06-3.72,16.8-12.75,16.8-23.09c0-1.21-0.11-2.42-0.3-3.62C-2384.61-442.15-2384.5-443.36-2384.5-444.56z M-2470.11-520.21    c3.8-7.05,11.54-11.43,20.2-11.43c12.39,0,22.46,9.11,22.46,20.31c0,1.81-0.27,3.63-0.81,5.39c-0.22,0.74-0.06,1.54,0.44,2.13    c0.5,0.59,1.27,0.9,2.02,0.8c1.03-0.12,2.03-0.19,2.99-0.19c12.38,0,22.46,9.11,22.46,20.3c0,5.57-2.46,10.77-6.92,14.65    c-0.65,0.57-0.93,1.45-0.72,2.29c0.21,0.84,0.88,1.48,1.73,1.67c10.12,2.2,17.19,10.31,17.19,19.74c0,0.44-0.02,0.89-0.05,1.33    h-35.25h-0.37c-1.26,0-2.28,1.02-2.28,2.28c0,4.86-4.36,8.82-9.77,8.94c-5.35-0.12-9.65-4.08-9.65-8.94    c0-1.26-1.02-2.28-2.28-2.28h-0.62h-23.01v-17.25c2.98-0.45,5.66-1.79,7.73-3.7c2.72-2.46,4.41-5.88,4.41-9.65    c0-3.76-1.7-7.19-4.42-9.65c-2.07-1.92-4.74-3.24-7.73-3.7v-22.93c0.02-0.13,0.03-0.27,0.02-0.41c-0.01-0.26-0.02-0.53-0.02-0.79    c0-0.02,0-0.03,0-0.05c0-0.01,0-0.02,0-0.04C-2472.36-514.47-2471.6-517.44-2470.11-520.21z M-2541.47-464.29    c0.84-0.19,1.5-0.83,1.72-1.66c0.22-0.83-0.05-1.71-0.69-2.28c-4.36-3.87-6.76-9.08-6.76-14.66c0-11.2,9.82-20.3,21.9-20.3    c0.94,0,1.89,0.06,2.91,0.18c0.76,0.12,1.53-0.2,2.02-0.79c0.5-0.59,0.66-1.39,0.44-2.13c-0.52-1.76-0.79-3.58-0.79-5.4    c0-11.2,9.82-20.3,21.9-20.3c8.44,0,15.98,4.38,19.69,11.42c1.46,2.77,2.2,5.75,2.21,8.85c0,0.01,0,0.02,0,0.04    c0,0.02,0,0.03,0,0.05c0,0.26-0.01,0.53-0.02,0.79c-0.01,0.13,0,0.26,0.02,0.4v25.06c0,1.25,1.01,2.27,2.26,2.28    c2.49,0.03,4.76,0.89,6.5,2.26c2,1.64,3.27,4.02,3.27,6.67c0,2.61-1.23,4.96-3.18,6.6c-1.75,1.42-4.05,2.31-6.59,2.34    c-1.25,0.02-2.26,1.03-2.26,2.28v19.38h-81.25c-0.03-0.45-0.05-0.89-0.05-1.33C-2558.24-453.98-2551.35-462.1-2541.47-464.29z     M-2478.04-361.67c-3.76,7.05-11.42,11.43-19.98,11.43c-12.25,0-22.22-9.11-22.22-20.3c0-1.82,0.27-3.63,0.8-5.4    c0.22-0.74,0.06-1.54-0.44-2.13c-0.44-0.52-1.08-0.81-1.75-0.81c-0.09,0-0.18,0-0.27,0.02c-1.02,0.12-2.01,0.19-2.95,0.19    c-12.25,0-22.22-9.11-22.22-20.3c0-5.58,2.43-10.78,6.85-14.65c0.65-0.57,0.92-1.45,0.71-2.29c-0.22-0.83-0.88-1.48-1.72-1.66    c-10.02-2.2-17.01-10.31-17.01-19.74c0-0.44,0.02-0.89,0.05-1.33h82.12v17.62c-0.71,0.1-1.39,0.26-2.06,0.45    c-0.15,0.04-0.31,0.08-0.46,0.13c-0.08,0.03-0.16,0.06-0.23,0.09c-5.55,1.89-9.53,6.86-9.53,12.7c0,1.68,0.33,3.3,0.94,4.79    c1.82,4.46,6.11,7.81,11.35,8.57v22.85c0,0.09,0,0.17,0.01,0.25c-0.01,0.23-0.01,0.46-0.01,0.68c0,0.75,0.05,1.49,0.12,2.22    C-2476.24-365.97-2476.93-363.73-2478.04-361.67z M-2406.08-417.59c-0.84,0.19-1.51,0.83-1.72,1.66    c-0.21,0.83,0.06,1.72,0.71,2.29c4.42,3.87,6.85,9.07,6.85,14.65c0,11.2-9.97,20.3-22.22,20.3c-0.95,0-1.92-0.06-2.95-0.19    c-0.76-0.09-1.52,0.21-2.02,0.8c-0.5,0.59-0.66,1.39-0.44,2.13c0.53,1.76,0.8,3.58,0.8,5.4c0,11.2-9.97,20.3-22.22,20.3    c-8.57,0-16.22-4.38-19.98-11.43c-1.14-2.14-1.84-4.39-2.11-6.73c0-0.07,0.01-0.14,0-0.21c-0.07-0.64-0.12-1.28-0.12-1.93    c0-0.28,0.01-0.56,0.02-0.84c0.01-0.14,0-0.28-0.02-0.42v-24.64c0-1.26-1.12-2.28-2.39-2.28c-5.46,0-9.9-4.01-9.9-8.95    c0-0.92,0.16-1.82,0.45-2.66c1.26-3.64,5.03-6.29,9.55-6.29c0,0,0,0,0.01,0c0,0,0,0,0,0c1.26,0,2.28-1.02,2.28-2.28v-19.75h20.07    c1.18,6.37,7.18,11.23,14.38,11.23c0.08,0,0.17-0.01,0.25-0.01c0.08,0,0.16,0.01,0.25,0.01c7.14,0,13.1-4.86,14.26-11.23h33.18    c0.03,0.44,0.05,0.89,0.05,1.33C-2389.06-427.9-2396.06-419.79-2406.08-417.59z"></path>		</g>	</g>	<g>					<text transform="matrix(1 0 0 1 -2841.3103 -191.3656)" class="st4" style="font-family:'Inter-Medium'; font-size:29.5125px; letter-spacing:18;">aprende con expertos</text>		<text transform="matrix(1 0 0 1 -2845.4968 -244.1878)"><tspan x="0" y="0" class="st3" style="font-family:'Inter-SemiBold'; font-size:61.4228px; letter-spacing:2;">FormandoenLínea</tspan><tspan x="506.55" y="0" class="st4" style="font-family:'Inter-SemiBold'; font-size:61.4228px; letter-spacing:2;">.com</tspan></text>	</g></g><g>	<g>		<path class="st1" d="M89.02,165.67c0-0.31,0.01-0.63,0.03-0.94h-0.03v-24.97c-0.03,0-0.07,0-0.1,0c-6.73,0-12.19-5.03-12.19-11.23   c0-6.2,5.46-11.23,12.19-11.23c0.03,0,0.07,0,0.1,0V95.27H50.97h-5.18H2.6c-0.21,1.18-0.32,2.39-0.32,3.62   c0,10.67,8.02,19.6,18.81,21.97c-4.7,4.12-7.63,9.93-7.63,16.37c0,12.48,10.97,22.59,24.5,22.59c1.09,0,2.17-0.07,3.23-0.2   c-0.58,1.93-0.9,3.96-0.9,6.06c0,12.48,10.97,22.59,24.5,22.59c9.66,0,18.01-5.15,22-12.64h0v0c1.27-2.38,2.08-5.01,2.37-7.78   C89.08,167.13,89.02,166.41,89.02,165.67z"></path>		<path class="st1" d="M157.04,69.69c4.74-4.12,7.7-9.93,7.7-16.37c0-12.48-11.08-22.59-24.74-22.59c-1.11,0-2.19,0.07-3.26,0.2   c0.59-1.93,0.91-3.96,0.91-6.06c0-12.48-11.08-22.59-24.74-22.59c-9.75,0-18.18,5.15-22.22,12.64h0v0c-1.62,3-2.53,6.38-2.53,9.95   c0,0.31,0.01,0.63,0.03,0.94h-0.03v25.36c6.72,0.08,12.15,5.06,12.15,11.22s-5.43,11.14-12.15,11.22v21.66h25.3   c0,6.2,5.51,11.23,12.31,11.23c6.8,0,12.31-5.03,12.31-11.23h37.64c0.21-1.18,0.32-2.39,0.32-3.62   C176.03,80.99,167.93,72.06,157.04,69.69z"></path>		<path class="st2" d="M88.16,51.16V25.81h-0.03c0.01-0.31,0.03-0.62,0.03-0.94c0-3.57-0.89-6.95-2.47-9.95v0h0   C81.75,7.44,73.51,2.29,63.98,2.29C50.62,2.29,39.8,12.4,39.8,24.87c0,2.1,0.31,4.13,0.89,6.06c-1.04-0.13-2.1-0.2-3.18-0.2   c-13.36,0-24.18,10.11-24.18,22.59c0,6.44,2.89,12.25,7.53,16.37C10.2,72.06,2.28,80.99,2.28,91.66c0,1.23,0.11,2.44,0.31,3.62   h42.62h5.11h37.82V73.63c6.64,0,12.03-5.03,12.03-11.23C100.18,56.19,94.8,51.16,88.16,51.16z"></path>		<g>			<path class="st2" d="M175.72,95.27h-37.27c0,6.2-5.46,11.23-12.18,11.23c-6.73,0-12.18-5.03-12.18-11.23H89.02v22.04    c-0.03,0-0.07,0-0.1,0c-6.73,0-12.18,5.03-12.18,11.23c0,6.2,5.46,11.23,12.18,11.23c0.03,0,0.07,0,0.1,0v24.97h0.03    c-0.01,0.31-0.03,0.62-0.03,0.94c0,3.57,0.9,6.95,2.5,9.95v0h0c3.99,7.48,12.34,12.64,22,12.64c13.53,0,24.5-10.11,24.5-22.59    c0-2.1-0.32-4.13-0.9-6.06c1.06,0.13,2.13,0.2,3.23,0.2c13.53,0,24.5-10.11,24.5-22.59c0-6.44-2.93-12.25-7.63-16.37    c10.78-2.37,18.81-11.3,18.81-21.97C176.03,97.66,175.92,96.45,175.72,95.27L175.72,95.27z"></path>			<path class="st0" d="M178.32,91.66c0-10.33-6.8-19.37-16.96-23.09c3.68-4.34,5.67-9.63,5.67-15.25    c0-13.72-12.12-24.87-27.03-24.87c-0.12,0-0.23,0-0.35,0c0.19-1.18,0.28-2.38,0.28-3.57C139.93,11.16,127.81,0,112.9,0    c-10.35,0-19.63,5.3-24.22,13.84c-0.18,0.33-0.34,0.66-0.49,0.99c-0.15-0.32-0.31-0.65-0.47-0.97C83.21,5.31,74.12,0,63.98,0    C49.38,0,37.51,11.16,37.51,24.88c0,1.2,0.09,2.39,0.27,3.57c-0.1,0-0.19,0-0.29,0c-14.59,0-26.47,11.16-26.47,24.87    c0,5.62,1.95,10.92,5.56,15.25C6.65,72.3,0,81.33,0,91.66c0,1.2,0.11,2.42,0.3,3.63C0.11,96.49,0,97.7,0,98.89    c0,10.33,6.74,19.36,16.8,23.09c-3.65,4.34-5.62,9.63-5.62,15.25c0,13.72,12.02,24.87,26.79,24.87c0.11,0,0.21,0,0.32,0    c-0.19,1.18-0.28,2.38-0.28,3.57c0,13.72,12.02,24.87,26.79,24.87c10.26,0,19.46-5.31,24.01-13.85c0.13-0.24,0.22-0.48,0.34-0.72    c0.12,0.24,0.23,0.48,0.36,0.72c4.56,8.54,13.76,13.85,24.01,13.85c14.77,0,26.79-11.16,26.79-24.87c0-1.2-0.09-2.39-0.28-3.57    c15,0.23,27.11-11.06,27.11-24.87c0-5.62-1.97-10.92-5.62-15.25c10.06-3.72,16.8-12.75,16.8-23.09c0-1.21-0.11-2.42-0.3-3.62    C178.21,94.07,178.32,92.85,178.32,91.66z M92.7,16c3.8-7.05,11.54-11.43,20.2-11.43c12.39,0,22.46,9.11,22.46,20.31    c0,1.81-0.27,3.63-0.81,5.39c-0.22,0.74-0.06,1.54,0.44,2.13c0.5,0.59,1.27,0.9,2.02,0.8c1.03-0.12,2.03-0.19,2.99-0.19    c12.38,0,22.46,9.11,22.46,20.3c0,5.57-2.46,10.77-6.92,14.65c-0.65,0.57-0.93,1.45-0.72,2.29c0.21,0.84,0.88,1.48,1.73,1.67    c10.12,2.2,17.19,10.31,17.19,19.74c0,0.44-0.02,0.89-0.05,1.33h-35.25h-0.37c-1.26,0-2.28,1.02-2.28,2.28    c0,4.86-4.36,8.82-9.77,8.94c-5.35-0.12-9.65-4.08-9.65-8.94c0-1.26-1.02-2.28-2.28-2.28h-0.62H90.44V75.74    c2.98-0.45,5.66-1.79,7.73-3.7c2.72-2.46,4.41-5.88,4.41-9.65c0-3.76-1.7-7.19-4.42-9.65c-2.07-1.92-4.74-3.24-7.73-3.7V26.12    c0.02-0.13,0.03-0.27,0.02-0.41c-0.01-0.26-0.02-0.53-0.02-0.79c0-0.02,0-0.03,0-0.05c0-0.01,0-0.02,0-0.04    C90.45,21.75,91.21,18.78,92.7,16z M21.34,71.92c0.84-0.19,1.5-0.83,1.72-1.66c0.22-0.83-0.05-1.71-0.69-2.28    C18,64.11,15.6,58.9,15.6,53.32c0-11.2,9.82-20.3,21.9-20.3c0.94,0,1.89,0.06,2.91,0.18c0.76,0.12,1.53-0.2,2.02-0.79    c0.5-0.59,0.66-1.39,0.44-2.13c-0.52-1.76-0.79-3.58-0.79-5.4c0-11.2,9.82-20.3,21.9-20.3c8.44,0,15.98,4.38,19.69,11.42    c1.46,2.77,2.2,5.75,2.21,8.85c0,0.01,0,0.02,0,0.04c0,0.02,0,0.03,0,0.05c0,0.26-0.01,0.53-0.02,0.79    c-0.01,0.13,0,0.26,0.02,0.4v25.06c0,1.25,1.01,2.27,2.26,2.28c2.49,0.03,4.76,0.89,6.5,2.26c2,1.64,3.27,4.02,3.27,6.67    c0,2.61-1.23,4.96-3.18,6.6c-1.75,1.42-4.05,2.31-6.59,2.34c-1.25,0.02-2.26,1.03-2.26,2.28v19.38H4.62    c-0.03-0.45-0.05-0.89-0.05-1.33C4.57,82.23,11.47,74.12,21.34,71.92z M84.77,174.55c-3.76,7.05-11.42,11.43-19.98,11.43    c-12.25,0-22.22-9.11-22.22-20.3c0-1.82,0.27-3.63,0.8-5.4c0.22-0.74,0.06-1.54-0.44-2.13c-0.44-0.52-1.08-0.81-1.75-0.81    c-0.09,0-0.18,0-0.27,0.02c-1.02,0.12-2.01,0.19-2.95,0.19c-12.25,0-22.22-9.11-22.22-20.3c0-5.58,2.43-10.78,6.85-14.65    c0.65-0.57,0.92-1.45,0.71-2.29c-0.22-0.83-0.88-1.48-1.72-1.66c-10.02-2.2-17.01-10.31-17.01-19.74c0-0.44,0.02-0.89,0.05-1.33    h82.12v17.62c-0.71,0.1-1.39,0.26-2.06,0.45c-0.15,0.04-0.31,0.08-0.46,0.13c-0.08,0.03-0.16,0.06-0.23,0.09    c-5.55,1.89-9.53,6.86-9.53,12.7c0,1.68,0.33,3.3,0.94,4.79c1.82,4.46,6.11,7.81,11.35,8.57v22.85c0,0.09,0,0.17,0.01,0.25    c-0.01,0.23-0.01,0.46-0.01,0.68c0,0.75,0.05,1.49,0.12,2.22C86.57,170.25,85.88,172.49,84.77,174.55z M156.73,118.63    c-0.84,0.19-1.51,0.83-1.72,1.66c-0.21,0.83,0.06,1.72,0.71,2.29c4.42,3.87,6.85,9.07,6.85,14.65c0,11.2-9.97,20.3-22.22,20.3    c-0.95,0-1.92-0.06-2.95-0.19c-0.76-0.09-1.52,0.21-2.02,0.8c-0.5,0.59-0.66,1.39-0.44,2.13c0.53,1.76,0.8,3.58,0.8,5.4    c0,11.2-9.97,20.3-22.22,20.3c-8.57,0-16.22-4.38-19.98-11.43c-1.14-2.14-1.84-4.39-2.11-6.73c0-0.07,0.01-0.14,0-0.21    c-0.07-0.64-0.12-1.28-0.12-1.93c0-0.28,0.01-0.56,0.02-0.84c0.01-0.14,0-0.28-0.02-0.42v-24.64c0-1.26-1.12-2.28-2.39-2.28    c-5.46,0-9.9-4.01-9.9-8.95c0-0.92,0.16-1.82,0.45-2.66c1.26-3.64,5.03-6.29,9.55-6.29c0,0,0,0,0.01,0c0,0,0,0,0,0    c1.26,0,2.28-1.02,2.28-2.28V97.56h20.07c1.18,6.37,7.18,11.23,14.38,11.23c0.08,0,0.17-0.01,0.25-0.01    c0.08,0,0.16,0.01,0.25,0.01c7.14,0,13.1-4.86,14.26-11.23h33.18c0.03,0.44,0.05,0.89,0.05,1.33    C173.75,108.31,166.75,116.43,156.73,118.63z"></path>		</g>	</g>	<g>		<g>			<path class="st3" d="M221.23,118.87V74.2h28.62v6.78h-20.53v12.13h18.56v6.78h-18.56v18.98H221.23z"></path>			<path class="st3" d="M273.92,119.53c-3.27,0-6.11-0.72-8.51-2.16s-4.26-3.45-5.57-6.04c-1.32-2.59-1.97-5.61-1.97-9.07    c0-3.46,0.66-6.49,1.97-9.1c1.32-2.6,3.17-4.62,5.57-6.06s5.24-2.16,8.51-2.16c3.27,0,6.11,0.72,8.51,2.16s4.26,3.46,5.57,6.06    c1.32,2.6,1.97,5.64,1.97,9.1c0,3.46-0.66,6.49-1.97,9.07c-1.32,2.59-3.17,4.6-5.57,6.04S277.19,119.53,273.92,119.53z     M273.96,113.2c1.77,0,3.26-0.49,4.45-1.47s2.08-2.3,2.67-3.96c0.59-1.66,0.88-3.5,0.88-5.54c0-2.05-0.29-3.91-0.88-5.57    c-0.59-1.67-1.48-2.99-2.67-3.98c-1.19-0.99-2.68-1.48-4.45-1.48c-1.82,0-3.33,0.5-4.53,1.48c-1.2,0.99-2.09,2.32-2.68,3.98    s-0.88,3.52-0.88,5.57c0,2.04,0.29,3.88,0.88,5.54c0.59,1.66,1.48,2.98,2.68,3.96C270.63,112.71,272.14,113.2,273.96,113.2z"></path>			<path class="st3" d="M299.1,118.87v-33.5h7.66v5.58h0.35c0.61-1.93,1.66-3.43,3.15-4.48c1.49-1.05,3.2-1.58,5.12-1.58    c0.44,0,0.93,0.02,1.47,0.05c0.55,0.04,1,0.09,1.36,0.16v7.26c-0.33-0.12-0.86-0.22-1.58-0.32c-0.72-0.09-1.41-0.14-2.08-0.14    c-1.44,0-2.73,0.31-3.87,0.93s-2.04,1.47-2.69,2.56S307,97.75,307,99.18v19.7H299.1z"></path>			<path class="st3" d="M325.92,118.87v-33.5h7.55v5.69h0.39c0.7-1.92,1.85-3.42,3.47-4.5s3.54-1.62,5.78-1.62    c2.27,0,4.18,0.55,5.75,1.65c1.56,1.1,2.67,2.59,3.3,4.48h0.35c0.74-1.86,2-3.35,3.76-4.46c1.77-1.11,3.86-1.67,6.29-1.67    c3.08,0,5.6,0.97,7.55,2.92s2.92,4.79,2.92,8.53v22.49h-7.92V97.61c0-2.08-0.55-3.6-1.66-4.57c-1.11-0.97-2.46-1.45-4.06-1.45    c-1.9,0-3.39,0.59-4.46,1.78c-1.07,1.18-1.6,2.72-1.6,4.61v20.9h-7.74V97.28c0-1.73-0.52-3.11-1.56-4.14s-2.4-1.55-4.07-1.55    c-1.13,0-2.17,0.29-3.1,0.86c-0.93,0.58-1.67,1.38-2.22,2.42c-0.55,1.04-0.83,2.25-0.83,3.63v20.37H325.92z"></path>			<path class="st3" d="M393.16,119.55c-2.12,0-4.03-0.38-5.73-1.14c-1.69-0.76-3.03-1.89-4.01-3.39c-0.98-1.5-1.47-3.34-1.47-5.54    c0-1.89,0.35-3.45,1.05-4.69c0.7-1.24,1.65-2.22,2.86-2.97c1.21-0.74,2.57-1.31,4.09-1.69c1.52-0.39,3.09-0.67,4.72-0.84    c1.96-0.2,3.56-0.39,4.78-0.56c1.22-0.17,2.11-0.43,2.67-0.79c0.56-0.36,0.84-0.91,0.84-1.67v-0.13c0-1.64-0.49-2.92-1.46-3.82    c-0.97-0.9-2.38-1.35-4.21-1.35c-1.93,0-3.46,0.42-4.59,1.26c-1.13,0.84-1.89,1.84-2.28,2.99l-7.37-1.05    c0.58-2.04,1.54-3.74,2.88-5.12c1.34-1.37,2.97-2.41,4.91-3.1c1.93-0.69,4.07-1.04,6.41-1.04c1.61,0,3.22,0.19,4.82,0.57    c1.6,0.38,3.06,1,4.38,1.86c1.32,0.87,2.39,2.04,3.2,3.52c0.81,1.48,1.21,3.34,1.21,5.56v22.42h-7.59v-4.6H403    c-0.48,0.93-1.15,1.8-2.02,2.61c-0.87,0.81-1.95,1.45-3.25,1.94C396.43,119.31,394.91,119.55,393.16,119.55z M395.21,113.75    c1.58,0,2.96-0.32,4.12-0.95c1.16-0.63,2.06-1.47,2.69-2.52s0.95-2.19,0.95-3.42v-3.95c-0.25,0.2-0.67,0.39-1.25,0.57    s-1.25,0.33-1.97,0.46c-0.73,0.13-1.45,0.25-2.16,0.35c-0.71,0.1-1.33,0.19-1.85,0.26c-1.18,0.16-2.23,0.42-3.16,0.79    c-0.93,0.36-1.67,0.87-2.2,1.52c-0.54,0.65-0.81,1.48-0.81,2.5c0,1.46,0.53,2.55,1.59,3.29S393.57,113.75,395.21,113.75z"></path>			<path class="st3" d="M429.16,99.24v19.63h-7.9v-33.5h7.55v5.69h0.39c0.77-1.88,2-3.37,3.7-4.47c1.69-1.1,3.79-1.66,6.29-1.66    c2.31,0,4.33,0.49,6.05,1.48c1.72,0.99,3.06,2.42,4.01,4.3s1.42,4.15,1.41,6.83v21.33h-7.9V98.76c0-2.24-0.58-3.99-1.73-5.26    c-1.16-1.27-2.75-1.9-4.79-1.9c-1.38,0-2.61,0.3-3.68,0.9c-1.07,0.6-1.9,1.47-2.51,2.61C429.47,96.26,429.16,97.63,429.16,99.24z    "></path>			<path class="st3" d="M473.61,119.46c-2.63,0-4.99-0.68-7.07-2.03c-2.08-1.35-3.72-3.32-4.93-5.89c-1.21-2.57-1.81-5.7-1.81-9.38    c0-3.72,0.61-6.87,1.84-9.43c1.23-2.57,2.89-4.51,4.98-5.82c2.09-1.32,4.43-1.97,7-1.97c1.96,0,3.58,0.33,4.84,0.99    c1.26,0.66,2.27,1.45,3.01,2.38c0.74,0.92,1.32,1.79,1.72,2.61h0.33V74.2h7.92v44.67h-7.76v-5.28h-0.48    c-0.41,0.81-1,1.68-1.77,2.58c-0.77,0.91-1.79,1.68-3.05,2.32C477.12,119.14,475.53,119.46,473.61,119.46z M475.81,112.99    c1.67,0,3.1-0.45,4.27-1.36c1.18-0.91,2.07-2.18,2.68-3.81c0.61-1.63,0.92-3.53,0.92-5.69c0-2.17-0.3-4.05-0.91-5.65    c-0.6-1.6-1.49-2.84-2.66-3.73c-1.17-0.89-2.61-1.33-4.31-1.33c-1.76,0-3.23,0.46-4.41,1.37s-2.07,2.18-2.66,3.79    c-0.6,1.61-0.89,3.46-0.89,5.54c0,2.09,0.3,3.96,0.91,5.59c0.6,1.64,1.5,2.92,2.68,3.86    C472.62,112.52,474.08,112.99,475.81,112.99z"></path>			<path class="st3" d="M516.96,119.53c-3.27,0-6.11-0.72-8.51-2.16s-4.26-3.45-5.57-6.04c-1.32-2.59-1.97-5.61-1.97-9.07    c0-3.46,0.66-6.49,1.97-9.1c1.32-2.6,3.17-4.62,5.57-6.06s5.24-2.16,8.51-2.16c3.27,0,6.11,0.72,8.51,2.16s4.26,3.46,5.57,6.06    c1.32,2.6,1.97,5.64,1.97,9.1c0,3.46-0.66,6.49-1.97,9.07c-1.32,2.59-3.17,4.6-5.57,6.04S520.24,119.53,516.96,119.53z     M517.01,113.2c1.77,0,3.26-0.49,4.45-1.47s2.08-2.3,2.67-3.96c0.59-1.66,0.88-3.5,0.88-5.54c0-2.05-0.29-3.91-0.88-5.57    c-0.59-1.67-1.48-2.99-2.67-3.98c-1.19-0.99-2.68-1.48-4.45-1.48c-1.82,0-3.33,0.5-4.53,1.48c-1.2,0.99-2.09,2.32-2.68,3.98    s-0.88,3.52-0.88,5.57c0,2.04,0.29,3.88,0.88,5.54c0.59,1.66,1.48,2.98,2.68,3.96C513.68,112.71,515.19,113.2,517.01,113.2z"></path>			<path class="st3" d="M556.98,119.53c-3.36,0-6.26-0.7-8.69-2.1s-4.31-3.4-5.62-5.98c-1.31-2.58-1.96-5.62-1.96-9.13    c0-3.45,0.66-6.47,1.97-9.08c1.32-2.61,3.16-4.65,5.53-6.11c2.37-1.46,5.15-2.19,8.35-2.19c2.06,0,4.02,0.33,5.86,0.99    c1.84,0.66,3.47,1.68,4.89,3.06c1.42,1.38,2.53,3.14,3.35,5.27c0.81,2.13,1.22,4.67,1.22,7.6v2.42h-27.46v-5.32h19.89    c-0.01-1.51-0.34-2.86-0.98-4.05c-0.64-1.18-1.53-2.12-2.67-2.8c-1.14-0.68-2.47-1.02-3.98-1.02c-1.61,0-3.03,0.39-4.25,1.17    c-1.22,0.78-2.17,1.8-2.85,3.05c-0.68,1.26-1.02,2.64-1.04,4.13v4.65c0,1.95,0.36,3.62,1.07,5.01s1.71,2.45,2.99,3.18    c1.28,0.74,2.78,1.1,4.49,1.1c1.15,0,2.19-0.16,3.12-0.49s1.74-0.81,2.42-1.45c0.68-0.64,1.2-1.43,1.55-2.38l7.37,0.83    c-0.47,1.95-1.35,3.65-2.65,5.09c-1.3,1.45-2.96,2.57-4.98,3.36C561.89,119.13,559.58,119.53,556.98,119.53z"></path>			<path class="st3" d="M588.91,99.24v19.63h-7.9v-33.5h7.55v5.69h0.39c0.77-1.88,2-3.37,3.7-4.47c1.69-1.1,3.79-1.66,6.29-1.66    c2.31,0,4.33,0.49,6.05,1.48c1.72,0.99,3.06,2.42,4.01,4.3s1.42,4.15,1.41,6.83v21.33h-7.9V98.76c0-2.24-0.58-3.99-1.73-5.26    c-1.16-1.27-2.75-1.9-4.79-1.9c-1.38,0-2.61,0.3-3.68,0.9c-1.07,0.6-1.9,1.47-2.51,2.61C589.21,96.26,588.91,97.63,588.91,99.24z    "></path>			<path class="st3" d="M621.27,118.87V74.2h8.09v37.89h19.67v6.78H621.27z"></path>			<path class="st3" d="M658.14,118.87v-33.5h7.9v33.5H658.14z M659.08,80.97l4.89-9.97h7.72l-6.7,9.97H659.08z"></path>			<path class="st3" d="M684.5,99.24v19.63h-7.9v-33.5h7.55v5.69h0.39c0.77-1.88,2-3.37,3.7-4.47c1.69-1.1,3.79-1.66,6.29-1.66    c2.31,0,4.33,0.49,6.05,1.48c1.72,0.99,3.06,2.42,4.01,4.3s1.42,4.15,1.41,6.83v21.33h-7.9V98.76c0-2.24-0.58-3.99-1.73-5.26    c-1.16-1.27-2.75-1.9-4.79-1.9c-1.38,0-2.61,0.3-3.68,0.9c-1.07,0.6-1.9,1.47-2.51,2.61C684.81,96.26,684.5,97.63,684.5,99.24z"></path>			<path class="st3" d="M731.35,119.53c-3.36,0-6.26-0.7-8.69-2.1s-4.31-3.4-5.62-5.98c-1.31-2.58-1.96-5.62-1.96-9.13    c0-3.45,0.66-6.47,1.97-9.08c1.32-2.61,3.16-4.65,5.53-6.11c2.37-1.46,5.15-2.19,8.35-2.19c2.06,0,4.02,0.33,5.86,0.99    c1.84,0.66,3.47,1.68,4.89,3.06c1.42,1.38,2.53,3.14,3.35,5.27c0.81,2.13,1.22,4.67,1.22,7.6v2.42h-27.46v-5.32h19.89    c-0.01-1.51-0.34-2.86-0.98-4.05c-0.64-1.18-1.53-2.12-2.67-2.8c-1.14-0.68-2.47-1.02-3.98-1.02c-1.61,0-3.03,0.39-4.25,1.17    c-1.22,0.78-2.17,1.8-2.85,3.05c-0.68,1.26-1.02,2.64-1.04,4.13v4.65c0,1.95,0.36,3.62,1.07,5.01s1.71,2.45,2.99,3.18    c1.28,0.74,2.78,1.1,4.49,1.1c1.15,0,2.19-0.16,3.12-0.49s1.74-0.81,2.42-1.45c0.68-0.64,1.2-1.43,1.55-2.38l7.37,0.83    c-0.47,1.95-1.35,3.65-2.65,5.09c-1.3,1.45-2.96,2.57-4.98,3.36C736.26,119.13,733.95,119.53,731.35,119.53z"></path>			<path class="st3" d="M765.02,119.55c-2.12,0-4.03-0.38-5.73-1.14c-1.69-0.76-3.03-1.89-4.01-3.39c-0.98-1.5-1.47-3.34-1.47-5.54    c0-1.89,0.35-3.45,1.05-4.69c0.7-1.24,1.65-2.22,2.86-2.97c1.21-0.74,2.57-1.31,4.09-1.69c1.52-0.39,3.09-0.67,4.72-0.84    c1.96-0.2,3.56-0.39,4.78-0.56c1.22-0.17,2.11-0.43,2.67-0.79c0.56-0.36,0.84-0.91,0.84-1.67v-0.13c0-1.64-0.49-2.92-1.46-3.82    c-0.97-0.9-2.38-1.35-4.21-1.35c-1.93,0-3.46,0.42-4.59,1.26c-1.13,0.84-1.89,1.84-2.28,2.99l-7.37-1.05    c0.58-2.04,1.54-3.74,2.88-5.12c1.34-1.37,2.97-2.41,4.91-3.1c1.93-0.69,4.07-1.04,6.41-1.04c1.61,0,3.22,0.19,4.82,0.57    c1.6,0.38,3.06,1,4.38,1.86c1.32,0.87,2.39,2.04,3.2,3.52c0.81,1.48,1.21,3.34,1.21,5.56v22.42h-7.59v-4.6h-0.26    c-0.48,0.93-1.15,1.8-2.02,2.61c-0.87,0.81-1.95,1.45-3.25,1.94C768.29,119.31,766.76,119.55,765.02,119.55z M767.07,113.75    c1.58,0,2.96-0.32,4.12-0.95c1.16-0.63,2.06-1.47,2.69-2.52s0.95-2.19,0.95-3.42v-3.95c-0.25,0.2-0.67,0.39-1.25,0.57    s-1.25,0.33-1.97,0.46c-0.73,0.13-1.45,0.25-2.16,0.35c-0.71,0.1-1.33,0.19-1.85,0.26c-1.18,0.16-2.23,0.42-3.16,0.79    c-0.93,0.36-1.67,0.87-2.2,1.52c-0.54,0.65-0.81,1.48-0.81,2.5c0,1.46,0.53,2.55,1.59,3.29S765.42,113.75,767.07,113.75z"></path>			<path class="st4" d="M797.99,119.35c-1.32,0-2.46-0.46-3.4-1.4s-1.41-2.06-1.4-3.4c-0.01-1.31,0.45-2.43,1.4-3.36    s2.08-1.4,3.4-1.4c1.28,0,2.4,0.47,3.35,1.4c0.95,0.93,1.44,2.05,1.45,3.36c-0.01,0.89-0.24,1.69-0.69,2.42    c-0.44,0.73-1.02,1.3-1.74,1.73C799.64,119.14,798.85,119.35,797.99,119.35z"></path>			<path class="st4" d="M828.04,119.53c-3.34,0-6.21-0.73-8.6-2.2c-2.39-1.47-4.23-3.5-5.52-6.1s-1.93-5.59-1.93-8.98    c0-3.4,0.65-6.41,1.96-9.02c1.31-2.61,3.16-4.65,5.55-6.11c2.39-1.46,5.22-2.19,8.5-2.19c2.72,0,5.13,0.5,7.23,1.49    c2.1,1,3.78,2.4,5.03,4.21c1.25,1.81,1.96,3.92,2.14,6.34h-7.55c-0.31-1.61-1.03-2.96-2.17-4.05c-1.14-1.08-2.67-1.62-4.57-1.62    c-1.61,0-3.03,0.43-4.25,1.3s-2.17,2.1-2.85,3.72s-1.01,3.55-1.01,5.8c0,2.28,0.33,4.24,1,5.88s1.61,2.89,2.82,3.77    s2.64,1.32,4.29,1.32c1.16,0,2.21-0.22,3.13-0.67c0.92-0.44,1.7-1.09,2.32-1.93c0.62-0.84,1.05-1.87,1.29-3.08h7.55    c-0.19,2.37-0.89,4.47-2.09,6.29c-1.21,1.82-2.85,3.25-4.93,4.27C833.29,119.02,830.85,119.53,828.04,119.53z"></path>			<path class="st4" d="M865.96,119.53c-3.27,0-6.11-0.72-8.51-2.16s-4.26-3.45-5.57-6.04c-1.32-2.59-1.97-5.61-1.97-9.07    c0-3.46,0.66-6.49,1.97-9.1c1.32-2.6,3.17-4.62,5.57-6.06s5.24-2.16,8.51-2.16c3.27,0,6.11,0.72,8.51,2.16s4.26,3.46,5.57,6.06    c1.32,2.6,1.97,5.64,1.97,9.1c0,3.46-0.66,6.49-1.97,9.07c-1.32,2.59-3.17,4.6-5.57,6.04S869.23,119.53,865.96,119.53z     M866.01,113.2c1.77,0,3.26-0.49,4.45-1.47s2.08-2.3,2.67-3.96c0.59-1.66,0.88-3.5,0.88-5.54c0-2.05-0.29-3.91-0.88-5.57    c-0.59-1.67-1.48-2.99-2.67-3.98c-1.19-0.99-2.68-1.48-4.45-1.48c-1.82,0-3.33,0.5-4.53,1.48c-1.2,0.99-2.09,2.32-2.68,3.98    s-0.88,3.52-0.88,5.57c0,2.04,0.29,3.88,0.88,5.54c0.59,1.66,1.48,2.98,2.68,3.96C862.68,112.71,864.19,113.2,866.01,113.2z"></path>			<path class="st4" d="M891.15,118.87v-33.5h7.55v5.69h0.39c0.7-1.92,1.85-3.42,3.47-4.5s3.54-1.62,5.78-1.62    c2.27,0,4.18,0.55,5.75,1.65c1.56,1.1,2.67,2.59,3.3,4.48h0.35c0.74-1.86,2-3.35,3.76-4.46c1.77-1.11,3.86-1.67,6.29-1.67    c3.08,0,5.6,0.97,7.55,2.92s2.92,4.79,2.92,8.53v22.49h-7.92V97.61c0-2.08-0.55-3.6-1.66-4.57c-1.11-0.97-2.46-1.45-4.06-1.45    c-1.9,0-3.39,0.59-4.46,1.78c-1.07,1.18-1.6,2.72-1.6,4.61v20.9h-7.74V97.28c0-1.73-0.52-3.11-1.56-4.14s-2.4-1.55-4.07-1.55    c-1.13,0-2.17,0.29-3.1,0.86c-0.93,0.58-1.67,1.38-2.22,2.42c-0.55,1.04-0.83,2.25-0.83,3.63v20.37H891.15z"></path>		</g>	</g></g></svg>